<svg width="24" height="24" viewBox="0 0 24 24" fill="none" xmlns="http://www.w3.org/2000/svg">
<g clip-path="url(#clip0_1_700)">
<path d="M18.175 9.17499L14.826 5.82599" stroke="white" stroke-width="1.5" stroke-linecap="round" stroke-linejoin="round"/>
<path d="M20 13V15C20 16.3261 19.4732 17.5979 18.5355 18.5355C17.5979 19.4732 16.3261 20 15 20H9C7.67392 20 6.40215 19.4732 5.46447 18.5355C4.52678 17.5979 4 16.3261 4 15V9C4 7.67392 4.52678 6.40215 5.46447 5.46447C6.40215 4.52678 7.67392 4 9 4H11" stroke="white" stroke-width="1.5" stroke-linecap="round" stroke-linejoin="round"/>
<path d="M12.665 14.001H11C10.7348 14.001 10.4804 13.8956 10.2929 13.7081C10.1054 13.5206 10 13.2662 10 13.001V11.334C10.0001 10.8967 10.1738 10.4773 10.483 10.168L15.957 4.69499C16.1769 4.47507 16.4379 4.30063 16.7253 4.18162C17.0126 4.0626 17.3205 4.00134 17.6315 4.00134C17.9425 4.00134 18.2504 4.0626 18.5377 4.18162C18.8251 4.30063 19.0861 4.47507 19.306 4.69499C19.5261 4.9149 19.7006 5.17601 19.8197 5.46342C19.9388 5.75082 20.0001 6.05888 20.0001 6.36999C20.0001 6.68109 19.9388 6.98915 19.8197 7.27655C19.7006 7.56396 19.5261 7.82508 19.306 8.04499L13.832 13.518C13.6787 13.6712 13.4968 13.7927 13.2965 13.8756C13.0963 13.9584 12.8817 14.0011 12.665 14.001Z" stroke="white" stroke-width="1.5" stroke-linecap="round" stroke-linejoin="round"/>
</g>
<defs>
<clipPath id="clip0_1_700">
<rect width="24" height="24" fill="white"/>
</clipPath>
</defs>
</svg>
