<svg width="24" height="24" viewBox="0 0 24 24" fill="none" xmlns="http://www.w3.org/2000/svg">
<g clip-path="url(#clip0_28_1366)">
<path d="M4 5V19.502C3.99991 19.6875 4.0514 19.8693 4.1487 20.0271C4.246 20.185 4.38529 20.3127 4.551 20.396L5.541 20.894C5.67938 20.9633 5.83198 20.9996 5.98676 21C6.14155 21.0003 6.29431 20.9647 6.433 20.896L8.006 20.119L9.546 20.893C9.68485 20.9627 9.83803 20.999 9.99338 20.9992C10.1487 20.9994 10.302 20.9634 10.441 20.894L12 20.118L13.559 20.894C13.6979 20.9632 13.851 20.9991 14.0061 20.999C14.1613 20.9988 14.3143 20.9625 14.453 20.893L15.994 20.119L17.567 20.896C17.7057 20.9647 17.8584 21.0003 18.0132 21C18.168 20.9996 18.3206 20.9633 18.459 20.894L19.449 20.396C19.6147 20.3127 19.754 20.185 19.8513 20.0271C19.9486 19.8693 20.0001 19.6875 20 19.502V5C20 4.46957 19.7893 3.96086 19.4142 3.58579C19.0391 3.21071 18.5304 3 18 3H6C5.46957 3 4.96086 3.21071 4.58579 3.58579C4.21071 3.96086 4 4.46957 4 5Z" stroke="currentColor" stroke-width="1.5" stroke-linecap="round" stroke-linejoin="round"/>
<path d="M16 8H8" stroke="currentColor" stroke-width="1.5" stroke-linecap="round" stroke-linejoin="round"/>
<path d="M8 11.5H16" stroke="currentColor" stroke-width="1.5" stroke-linecap="round" stroke-linejoin="round"/>
<path d="M8 15H16" stroke="currentColor" stroke-width="1.5" stroke-linecap="round" stroke-linejoin="round"/>
</g>
<defs>
<clipPath id="clip0_28_1366">
<rect width="24" height="24" fill="white"/>
</clipPath>
</defs>
</svg>
