<svg width="24" height="24" viewBox="0 0 24 24" fill="none" xmlns="http://www.w3.org/2000/svg">
<g clip-path="url(#clip0_28_1329)">
<path d="M21 8.089V19C21 19.5304 20.7893 20.0391 20.4142 20.4142C20.0391 20.7893 19.5304 21 19 21H5C4.46957 21 3.96086 20.7893 3.58579 20.4142C3.21071 20.0391 3 19.5304 3 19V8.089C3 7.819 3.055 7.551 3.161 7.303L4.481 4.214C4.63495 3.85378 4.8913 3.54671 5.21823 3.33089C5.54515 3.11507 5.92826 3.00002 6.32 3H17.68C18.0717 3.00002 18.4548 3.11507 18.7818 3.33089C19.1087 3.54671 19.365 3.85378 19.519 4.214L20.839 7.303C20.945 7.552 21 7.819 21 8.089Z" stroke="#808191" stroke-width="1.5" stroke-linecap="round" stroke-linejoin="round"/>
<path d="M3 8H20.99" stroke="#808191" stroke-width="1.5" stroke-linecap="round" stroke-linejoin="round"/>
<path d="M14 3L15 8V11.225C15 11.653 14.615 12 14.14 12H9.86C9.385 12 9 11.653 9 11.225V8L10 3" stroke="#808191" stroke-width="1.5" stroke-linecap="round" stroke-linejoin="round"/>
<path d="M6 18H8" stroke="#808191" stroke-width="1.5" stroke-linecap="round" stroke-linejoin="round"/>
</g>
<defs>
<clipPath id="clip0_28_1329">
<rect width="24" height="24" fill="white"/>
</clipPath>
</defs>
</svg>