<svg width="24" height="24" viewBox="0 0 24 24" fill="none" xmlns="http://www.w3.org/2000/svg">
<g clip-path="url(#clip0_28_1396)">
<path d="M8.368 4.211L4.368 5.544C3.96959 5.6767 3.62305 5.93143 3.37752 6.2721C3.13198 6.61276 2.9999 7.02207 3 7.442V18.382C3.00009 18.5524 3.04372 18.7199 3.12674 18.8687C3.20977 19.0175 3.32944 19.1426 3.47439 19.2322C3.61935 19.3218 3.78479 19.3728 3.95501 19.3805C4.12522 19.3881 4.29458 19.3522 4.447 19.276L8.105 17.447C8.38266 17.3079 8.68894 17.2355 8.9995 17.2355C9.31006 17.2355 9.61634 17.3079 9.894 17.447L14.105 19.553C14.3827 19.6921 14.6889 19.7645 14.9995 19.7645C15.3101 19.7645 15.6163 19.6921 15.894 19.553L19.894 17.553C20.2263 17.3869 20.5058 17.1316 20.7012 16.8156C20.8965 16.4996 21 16.1355 21 15.764V5.387C21 5.22855 20.9624 5.07235 20.8903 4.93129C20.8181 4.79023 20.7134 4.66834 20.5849 4.57566C20.4564 4.48298 20.3077 4.42216 20.151 4.39823C19.9944 4.3743 19.8343 4.38793 19.684 4.438L15.633 5.788C15.2225 5.92501 14.7785 5.92501 14.368 5.788L9.632 4.211C9.2218 4.074 8.7782 4.074 8.368 4.211Z" stroke="#808191" stroke-width="1.5" stroke-linecap="round" stroke-linejoin="round"/>
<path d="M15 9.53V15.47" stroke="#808191" stroke-width="1.5" stroke-linecap="round" stroke-linejoin="round"/>
<path d="M9 7.53V13.47" stroke="#808191" stroke-width="1.5" stroke-linecap="round" stroke-linejoin="round"/>
</g>
<defs>
<clipPath id="clip0_28_1396">
<rect width="24" height="24" fill="white"/>
</clipPath>
</defs>
</svg>
