<svg width="48" height="48" viewBox="0 0 48 48" fill="none" xmlns="http://www.w3.org/2000/svg">
<rect width="48" height="48" rx="24" fill="#272B30"/>
<path fill-rule="evenodd" clip-rule="evenodd" d="M25.2329 34.7899C22.1279 34.7899 19.4795 33.727 17.2877 31.6012C15.0959 29.4753 14 26.9066 14 23.895C14 20.9188 15.0959 18.3677 17.2877 16.2419C19.516 14.0806 22.1644 13 25.2329 13C28.3745 13 31.242 14.2755 33.8356 16.8265C33.2146 17.7478 32.0822 19.0056 30.4384 20.5999C28.9041 18.7575 27.169 17.8363 25.2329 17.8363C23.516 17.8363 22.0366 18.4386 20.7946 19.6433C19.589 20.8125 18.9863 22.2298 18.9863 23.895C18.9863 25.5247 19.6073 26.942 20.8493 28.1467C22.0914 29.3513 23.5525 29.9536 25.2329 29.9536C27.2055 29.9536 28.9406 29.0324 30.4384 27.1901L34 30.6445C31.2237 33.4082 28.3014 34.7899 25.2329 34.7899Z" fill="white"/>
</svg>
