<svg width="135" height="32" viewBox="0 0 135 32" fill="currentColor" xmlns="http://www.w3.org/2000/svg">
<g clip-path="url(#clip0_28_1308)">
<mask id="mask0_28_1308" style="mask-type:luminance" maskUnits="userSpaceOnUse" x="-3" y="0" width="142" height="32">
<path d="M138.534 0H-2.82722V32H138.534V0Z" fill="white"/>
</mask>
<g mask="url(#mask0_28_1308)">
<path fill-rule="evenodd" clip-rule="evenodd" d="M132.753 2.01768C131.383 0.672557 129.743 0 127.831 0C125.92 0 124.279 0.672557 122.91 2.01768C121.541 3.3628 120.856 4.9871 120.856 6.89056C120.856 8.76864 121.541 10.3803 122.91 11.7254C124.279 13.0705 125.92 13.743 127.831 13.743C129.743 13.743 131.383 13.0705 132.753 11.7254C134.122 10.3803 134.806 8.76864 134.806 6.89056C134.806 4.9871 134.122 3.3628 132.753 2.01768ZM124.034 3.15976C125.067 2.1192 126.333 1.59891 127.831 1.59891C129.304 1.59891 130.57 2.1192 131.629 3.15976C132.688 4.20033 133.218 5.44393 133.218 6.89056C133.218 8.33722 132.688 9.5808 131.629 10.6214C130.57 11.662 129.304 12.1822 127.831 12.1822C126.359 12.1822 125.093 11.662 124.034 10.6214C122.975 9.5808 122.445 8.33722 122.445 6.89056C122.445 5.41855 122.975 4.17495 124.034 3.15976ZM132.791 14.5491C134.134 15.8435 134.806 17.4296 134.806 19.3078C134.806 21.1859 134.122 22.7974 132.753 24.1426C131.383 25.4877 129.743 26.1603 127.831 26.1603C125.92 26.1603 124.279 25.4877 122.91 24.1426C121.541 22.7974 120.856 21.1859 120.856 19.3078C120.856 17.4043 121.502 15.818 122.794 14.5491C122.975 14.676 123.362 15.0313 123.956 15.615C123.569 15.945 123.22 16.5033 122.91 17.29C122.6 18.0769 122.445 18.7494 122.445 19.3078C122.445 20.7544 122.975 21.998 124.034 23.0386C125.093 24.0791 126.359 24.5994 127.831 24.5994C129.304 24.5994 130.57 24.0791 131.629 23.0386C132.688 21.998 133.218 20.7544 133.218 19.3078C133.218 18.7494 133.063 18.0769 132.753 17.29C132.442 16.5033 132.094 15.945 131.706 15.615L132.791 14.5491ZM132.403 27.6253C132.946 27.6253 133.437 27.8411 133.876 28.2725C134.289 28.6786 134.496 29.1481 134.496 29.6811C134.496 30.1887 134.276 30.6582 133.837 31.0897C133.398 31.5211 132.921 31.7368 132.403 31.7368C131.861 31.7368 131.383 31.5338 130.97 31.1277C130.531 30.6963 130.311 30.2141 130.311 29.6811C130.311 29.1735 130.531 28.704 130.97 28.2725C131.409 27.8411 131.887 27.6253 132.403 27.6253ZM73.7847 29.5407C75.6289 31.1802 77.7076 31.9999 80.0202 31.9999C82.4794 31.9999 84.822 30.8782 87.0466 28.6348L84.192 25.8305C82.9921 27.3261 81.6013 28.0739 80.0202 28.0739C78.1174 28.0739 76.6973 27.2541 75.7605 25.6147C75.2628 24.7519 75.014 24.1335 75.014 23.7596V18.2372H79.3721V19.1994L85.5151 16.2311L79.3721 13.401V14.2681H75.014V0.505456H71.0181V23.7164C71.0181 25.9599 71.9405 27.9013 73.7847 29.5407ZM9.43231 31.9999C6.94383 31.9999 4.82133 31.137 3.06478 29.4113C1.30822 27.6856 0.429947 25.6003 0.429947 23.1556C0.429947 20.7396 1.30822 18.6687 3.06478 16.943C4.85058 15.1885 6.97308 14.3112 9.43231 14.3112C11.95 14.3112 14.2482 15.3467 16.3268 17.4175C15.8291 18.1654 14.9215 19.1864 13.6041 20.4807C12.3745 18.9851 10.9839 18.2372 9.43231 18.2372C8.05635 18.2372 6.87068 18.7262 5.87529 19.7041C4.90914 20.6532 4.42611 21.8038 4.42611 23.1556C4.42611 24.4786 4.9238 25.6291 5.91919 26.607C6.91459 27.5849 8.0856 28.0739 9.43231 28.0739C11.0132 28.0739 12.4038 27.3261 13.6041 25.8305L16.4585 28.6348C14.2335 30.8782 11.8915 31.9999 9.43231 31.9999ZM32.3632 15.3036L32.3193 14.3112H36.4472V31.9999H32.3632V30.5331C30.8409 31.511 29.1868 31.9999 27.401 31.9999C24.9125 31.9999 22.79 31.137 21.0334 29.4113C19.2769 27.6856 18.3986 25.6003 18.3986 23.1556C18.3986 20.7396 19.2769 18.6687 21.0334 16.943C22.8193 15.1885 24.9418 14.3112 27.401 14.3112C29.2454 14.3112 30.8994 14.642 32.3632 15.3036ZM27.401 18.2372C26.0542 18.2372 24.8832 18.7262 23.8878 19.7041C22.8924 20.682 22.3948 21.8325 22.3948 23.1556C22.3948 24.5074 22.8779 25.6723 23.8439 26.6502C24.8393 27.5993 26.025 28.0739 27.401 28.0739C28.7769 28.0739 29.9479 27.5993 30.9141 26.6502C31.9095 25.6723 32.4072 24.5074 32.4072 23.1556C32.4072 21.8038 31.9095 20.6532 30.9141 19.7041C29.9479 18.7262 28.7769 18.2372 27.401 18.2372ZM52.0288 20.4807L53.6097 18.9276C53.9024 18.6399 54.283 18.1366 54.7514 17.4175C52.6728 15.3467 50.3746 14.3112 47.8569 14.3112C46.1296 14.3112 44.4902 14.8146 42.9386 15.8212V14.3112H38.8546V31.9999H42.8508V22.5516C42.8508 21.9763 43.1435 21.2717 43.729 20.4376C44.3438 19.5747 44.9294 19.0426 45.4856 18.8413C46.6273 18.4386 47.4178 18.2372 47.8569 18.2372C49.4086 18.2372 50.7992 18.9851 52.0288 20.4807ZM69.6911 18.9276L68.1107 20.4807C66.8808 18.9851 65.49 18.2372 63.9389 18.2372C63.4992 18.2372 62.709 18.4386 61.5673 18.8413C61.0111 19.0426 60.4256 19.5747 59.8108 20.4376C59.2252 21.2717 58.9325 21.9763 58.9325 22.5516V31.9999H54.9363V14.3112H59.0203V15.8212C60.5719 14.8146 62.2114 14.3112 63.9389 14.3112C66.4561 14.3112 68.7543 15.3467 70.8331 17.4175C70.3647 18.1366 69.9842 18.6399 69.6911 18.9276ZM92.0086 25.1402C92.5063 25.8305 93.2385 26.6214 94.2046 27.513C95.0241 27.8869 95.7856 28.0739 96.4878 28.0739C98.0689 28.0739 99.4597 27.3261 100.66 25.8305L103.514 28.6348C101.29 30.8782 98.947 31.9999 96.4878 31.9999C93.9994 31.9999 91.877 31.137 90.1207 29.4113C88.3638 27.6856 87.4857 25.6003 87.4857 23.1556C87.4857 20.7396 88.3638 18.6687 90.1207 16.943C91.9063 15.1885 94.0287 14.3112 96.4878 14.3112C99.7379 14.3112 102.241 15.6199 103.998 18.2372C105.022 19.7904 105.534 21.171 105.534 22.379V25.097L92.0086 25.1402ZM96.4878 18.2372C95.5511 18.2372 94.673 18.5105 93.8535 19.057C93.0333 19.6035 92.419 20.3081 92.0086 21.171H101.011C100.602 20.3081 99.9717 19.6035 99.1229 19.057C98.3034 18.5105 97.4253 18.2372 96.4878 18.2372ZM107.77 0.505456V31.9999H111.767V0.505456H107.77ZM114.246 31.9999V0.505456H118.242V31.9999H114.246Z" fill="currentColor"/>
</g>
</g>
<defs>
<clipPath id="clip0_28_1308">
<rect width="135" height="32" fill="white"/>
</clipPath>
</defs>
</svg>
