<svg width="24" height="24" viewBox="0 0 24 24" fill="none" xmlns="http://www.w3.org/2000/svg">
<g clip-path="url(#clip0_102_1184)">
<path d="M15.5 12.5H8.5" stroke="currentColor" stroke-width="1.5" stroke-linecap="round" stroke-linejoin="round"/>
<path d="M3 20.5C3.00016 20.5936 3.02662 20.6853 3.07635 20.7647C3.12608 20.844 3.1971 20.9078 3.2813 20.9488C3.36551 20.9897 3.45952 21.0062 3.55264 20.9963C3.64576 20.9865 3.73424 20.9507 3.808 20.893L7.5 18H18C18.7956 18 19.5587 17.6839 20.1213 17.1213C20.6839 16.5587 21 15.7956 21 15V6C21 5.20435 20.6839 4.44129 20.1213 3.87868C19.5587 3.31607 18.7956 3 18 3H6C5.20435 3 4.44129 3.31607 3.87868 3.87868C3.31607 4.44129 3 5.20435 3 6V20.5Z" stroke="currentColor" stroke-width="1.5" stroke-linecap="round" stroke-linejoin="round"/>
<path d="M15.22 8.5H8.78003" stroke="currentColor" stroke-width="1.5" stroke-linecap="round" stroke-linejoin="round"/>
</g>
<defs>
<clipPath id="clip0_102_1184">
<rect width="24" height="24" fill="white"/>
</clipPath>
</defs>
</svg>
