<svg width="24" height="24" viewBox="0 0 24 24" fill="none" xmlns="http://www.w3.org/2000/svg">
<g clip-path="url(#clip0_28_487)">
<path d="M6.00001 12C5.53783 12.0003 5.09001 12.1606 4.73268 12.4538C4.37536 12.7469 4.1306 13.1548 4.04001 13.608L3.04001 18.608C2.98204 18.898 2.98912 19.1973 3.06075 19.4843C3.13237 19.7713 3.26676 20.0388 3.45423 20.2676C3.6417 20.4964 3.87758 20.6807 4.14487 20.8074C4.41217 20.934 4.70423 20.9998 5.00001 21H19C19.2958 20.9998 19.5879 20.934 19.8552 20.8074C20.1224 20.6807 20.3583 20.4964 20.5458 20.2676C20.7333 20.0388 20.8677 19.7713 20.9393 19.4843C21.0109 19.1973 21.018 18.898 20.96 18.608L19.96 13.608C19.8694 13.1548 19.6247 12.7469 19.2673 12.4538C18.91 12.1606 18.4622 12.0003 18 12" stroke="#1A1D1F" stroke-width="2" stroke-linecap="round" stroke-linejoin="round"/>
<path d="M8.5 17H15.5" stroke="#1A1D1F" stroke-width="2" stroke-linecap="round" stroke-linejoin="round"/>
<path d="M7.5 7.5C7.5 6.30653 7.97411 5.16193 8.81802 4.31802C9.66193 3.47411 10.8065 3 12 3C13.1935 3 14.3381 3.47411 15.182 4.31802C16.0259 5.16193 16.5 6.30653 16.5 7.5C16.5 9.487 14.26 11.607 12.94 12.684C12.6694 12.8893 12.3391 13.0004 11.9995 13.0004C11.6599 13.0004 11.3296 12.8893 11.059 12.684C9.739 11.605 7.5 9.485 7.5 7.5Z" stroke="#1A1D1F" stroke-width="2" stroke-linecap="round" stroke-linejoin="round"/>
<path d="M12 7.25C11.9506 7.25 11.9022 7.26466 11.8611 7.29213C11.82 7.3196 11.788 7.35865 11.769 7.40433C11.7501 7.45001 11.7452 7.50028 11.7548 7.54877C11.7644 7.59727 11.7883 7.64181 11.8232 7.67678C11.8582 7.71174 11.9027 7.73555 11.9512 7.7452C11.9997 7.75484 12.05 7.74989 12.0957 7.73097C12.1414 7.71205 12.1804 7.68001 12.2079 7.63889C12.2353 7.59778 12.25 7.54945 12.25 7.5C12.2501 7.46705 12.2437 7.4344 12.2311 7.40394C12.2186 7.37348 12.2001 7.34583 12.1767 7.32257C12.1534 7.29932 12.1256 7.28093 12.0951 7.26847C12.0646 7.25601 12.032 7.24974 11.999 7.25" stroke="#1A1D1F" stroke-width="2" stroke-linecap="round" stroke-linejoin="round"/>
</g>
<defs>
<clipPath id="clip0_28_487">
<rect width="24" height="24" fill="white"/>
</clipPath>
</defs>
</svg>
