<svg width="24" height="24" viewBox="0 0 24 24" fill="none" xmlns="http://www.w3.org/2000/svg">
<g clip-path="url(#clip0_28_1349)">
<path d="M3 18C3 16.9391 3.42143 15.9217 4.17157 15.1716C4.92172 14.4214 5.93913 14 7 14H11C12.0609 14 13.0783 14.4214 13.8284 15.1716C14.5786 15.9217 15 16.9391 15 18" stroke="#808191" stroke-width="1.5" stroke-linecap="round" stroke-linejoin="round"/>
<path d="M16 4.651C16.663 4.651 17.2989 4.91439 17.7678 5.38323C18.2366 5.85207 18.5 6.48796 18.5 7.151C18.5 7.81404 18.2366 8.44993 17.7678 8.91877C17.2989 9.38761 16.663 9.651 16 9.651" stroke="#808191" stroke-width="1.5" stroke-linecap="round" stroke-linejoin="round"/>
<path d="M11.405 4.996C12.0428 5.63385 12.4012 6.49895 12.4012 7.401C12.4012 8.30305 12.0428 9.16815 11.405 9.806C10.7672 10.4438 9.90205 10.8022 9 10.8022C8.09795 10.8022 7.23284 10.4438 6.595 9.806C5.95715 9.16815 5.59882 8.30305 5.59882 7.401C5.59882 6.49895 5.95715 5.63385 6.595 4.996C7.23285 4.35815 8.09795 3.99982 9 3.99982C9.90205 3.99982 10.7672 4.35815 11.405 4.996Z" stroke="#808191" stroke-width="1.5" stroke-linecap="round" stroke-linejoin="round"/>
<path d="M17 13C18.0609 13 19.0783 13.4214 19.8284 14.1716C20.5786 14.9217 21 15.9391 21 17" stroke="#808191" stroke-width="1.5" stroke-linecap="round" stroke-linejoin="round"/>
</g>
<defs>
<clipPath id="clip0_28_1349">
<rect width="24" height="24" fill="white"/>
</clipPath>
</defs>
</svg>
