<svg width="24" height="24" viewBox="0 0 24 24" fill="none" xmlns="http://www.w3.org/2000/svg">
<g clip-path="url(#clip0_28_1416)">
<path d="M12 3C16.982 3 21 7.018 21 12C21 16.982 16.982 21 12 21" stroke="#808191" stroke-width="1.5" stroke-linecap="round" stroke-linejoin="round"/>
<path d="M12 21C7.018 21 3 16.982 3 12C3 7.018 7.018 3 12 3" stroke="#808191" stroke-width="1.5" stroke-linecap="round" stroke-linejoin="round"/>
<path d="M10.168 4.06C7.278 8.885 7.278 15.116 10.168 19.941C10.3533 20.2632 10.6203 20.5308 10.942 20.7169C11.2637 20.903 11.6288 21.001 12.0005 21.001C12.3722 21.001 12.7373 20.903 13.059 20.7169C13.3807 20.5308 13.6477 20.2632 13.833 19.941C16.723 15.116 16.723 8.885 13.833 4.06C13.6477 3.73782 13.3807 3.47019 13.059 3.2841C12.7373 3.098 12.3722 3.00001 12.0005 3.00001C11.6288 3.00001 11.2637 3.098 10.942 3.2841C10.6203 3.47019 10.3533 3.73782 10.168 4.06Z" stroke="#808191" stroke-width="1.5" stroke-linecap="round" stroke-linejoin="round"/>
<path d="M19.94 10.168C15.115 7.278 8.884 7.278 4.059 10.168C3.73682 10.3533 3.46919 10.6203 3.2831 10.942C3.097 11.2637 2.99901 11.6288 2.99901 12.0005C2.99901 12.3722 3.097 12.7373 3.2831 13.059C3.46919 13.3807 3.73682 13.6477 4.059 13.833C8.884 16.723 15.115 16.723 19.94 13.833C20.2622 13.6477 20.5298 13.3807 20.7159 13.059C20.902 12.7373 21 12.3722 21 12.0005C21 11.6288 20.902 11.2637 20.7159 10.942C20.5298 10.6203 20.2622 10.3533 19.94 10.168Z" stroke="#808191" stroke-width="1.5" stroke-linecap="round" stroke-linejoin="round"/>
</g>
<defs>
<clipPath id="clip0_28_1416">
<rect width="24" height="24" fill="white"/>
</clipPath>
</defs>
</svg>
