<svg width="24" height="24" viewBox="0 0 24 24" fill="none" xmlns="http://www.w3.org/2000/svg">
<g clip-path="url(#clip0_102_1191)">
<path d="M9.70801 18.344V18.709C9.70814 19.3169 9.94974 19.8998 10.3797 20.3295C10.8096 20.7593 11.3926 21.0006 12.0005 21.0005C12.6084 21.0004 13.1913 20.7587 13.621 20.3288C14.0508 19.8989 14.2921 19.3159 14.292 18.708V18.343" stroke="currentColor" stroke-width="1.5" stroke-linecap="round" stroke-linejoin="round"/>
<path d="M13.833 5.751V4.833C13.833 4.59229 13.7856 4.35393 13.6935 4.13154C13.6013 3.90915 13.4663 3.70708 13.2961 3.53687C13.1259 3.36666 12.9238 3.23165 12.7015 3.13953C12.4791 3.04741 12.2407 3 12 3C11.7593 3 11.5209 3.04741 11.2985 3.13953C11.0761 3.23165 10.8741 3.36666 10.7039 3.53687C10.5337 3.70708 10.3986 3.90915 10.3065 4.13154C10.2144 4.35393 10.167 4.59229 10.167 4.833V5.751" stroke="currentColor" stroke-width="1.5" stroke-linecap="round" stroke-linejoin="round"/>
<path d="M6.563 10.188C6.56287 9.59296 6.67998 9.0037 6.90763 8.45392C7.13529 7.90413 7.46904 7.40459 7.88981 6.98382C8.31057 6.56305 8.81012 6.2293 9.35991 6.00165C9.90969 5.77399 10.4989 5.65688 11.094 5.65701H12.907C13.5021 5.65688 14.0913 5.77399 14.6411 6.00165C15.1909 6.2293 15.6904 6.56305 16.1112 6.98382C16.532 7.40459 16.8657 7.90413 17.0934 8.45392C17.321 9.0037 17.4381 9.59296 17.438 10.188V12.985C17.4381 13.5154 17.6489 14.024 18.024 14.399L18.665 15.04C19.0401 15.415 19.2509 15.9236 19.251 16.454C19.251 16.7022 19.2021 16.948 19.1071 17.1773C19.0122 17.4066 18.8729 17.6149 18.6974 17.7904C18.5219 17.9659 18.3136 18.1052 18.0843 18.2001C17.855 18.2951 17.6092 18.344 17.361 18.344H6.64C6.13874 18.344 5.65801 18.1449 5.30357 17.7904C4.94912 17.436 4.75 16.9553 4.75 16.454C4.75011 15.9236 4.9609 15.415 5.336 15.04L5.977 14.399C6.3521 14.024 6.56289 13.5154 6.563 12.985V10.188Z" stroke="currentColor" stroke-width="1.5" stroke-linecap="round" stroke-linejoin="round"/>
</g>
<defs>
<clipPath id="clip0_102_1191">
<rect width="24" height="24" fill="white"/>
</clipPath>
</defs>
</svg>
