<svg width="24" height="24" viewBox="0 0 24 24" fill="none" xmlns="http://www.w3.org/2000/svg">
<g clip-path="url(#clip0_102_1171)">
<path d="M12 21H5.25C4.65326 21 4.08097 20.7629 3.65901 20.341C3.23705 19.919 3 19.3467 3 18.75V8.14C3 7.836 3.062 7.536 3.181 7.256L4.416 4.366C4.58938 3.96084 4.87783 3.61546 5.2456 3.37265C5.61337 3.12984 6.0443 3.00027 6.485 3H17.514C18.414 3 19.229 3.538 19.583 4.366L20.818 7.256C20.938 7.536 21 7.836 21 8.14V12" stroke="white" stroke-width="1.5" stroke-linecap="round" stroke-linejoin="round"/>
<path d="M12 3V8" stroke="white" stroke-width="1.5" stroke-linecap="round" stroke-linejoin="round"/>
<path d="M7 17H9" stroke="white" stroke-width="1.5" stroke-linecap="round" stroke-linejoin="round"/>
<path d="M21 12V10C21 9.46957 20.7893 8.96086 20.4142 8.58579C20.0391 8.21071 19.5304 8 19 8H5C4.46957 8 3.96086 8.21071 3.58579 8.58579C3.21071 8.96086 3 9.46957 3 10V17" stroke="white" stroke-width="1.5" stroke-linecap="round" stroke-linejoin="round"/>
<path d="M18.5 23C20.9853 23 23 20.9853 23 18.5C23 16.0147 20.9853 14 18.5 14C16.0147 14 14 16.0147 14 18.5C14 20.9853 16.0147 23 18.5 23Z" stroke="white" stroke-width="1.5" stroke-linecap="round" stroke-linejoin="round"/>
<path d="M19.906 18.5H17.094" stroke="white" stroke-width="1.5" stroke-linecap="round" stroke-linejoin="round"/>
<path d="M18.5 17.0942V19.9062" stroke="white" stroke-width="1.5" stroke-linecap="round" stroke-linejoin="round"/>
</g>
<defs>
<clipPath id="clip0_102_1171">
<rect width="24" height="24" fill="white"/>
</clipPath>
</defs>
</svg>
